<?xml version="1.0" encoding="utf-8"?>
<!-- Generator: Adobe Illustrator 22.1.0, SVG Export Plug-In . SVG Version: 6.00 Build 0)  -->
<svg version="1.1" id="Layer_1" xmlns="http://www.w3.org/2000/svg" xmlns:xlink="http://www.w3.org/1999/xlink" x="0px" y="0px"
	 viewBox="0 0 200 200" style="enable-background:new 0 0 200 200;" xml:space="preserve">
<style type="text/css">
	.st0{fill:#FCBF75;stroke:#391410;stroke-width:6;stroke-linecap:round;stroke-linejoin:round;stroke-miterlimit:10;}
	.st1{fill:#FFBE57;stroke:#391410;stroke-width:5;stroke-linecap:round;stroke-linejoin:round;stroke-miterlimit:10;}
	.st2{fill:#CC4825;stroke:#391410;stroke-width:5;stroke-linecap:round;stroke-linejoin:round;stroke-miterlimit:10;}
	.st3{fill:#FCEE21;stroke:#391410;stroke-width:5;stroke-linecap:round;stroke-linejoin:round;stroke-miterlimit:10;}
	.st4{fill:#8C6239;stroke:#391410;stroke-width:5;stroke-linecap:round;stroke-linejoin:round;stroke-miterlimit:10;}
	.st5{fill:#48B748;stroke:#391410;stroke-width:5;stroke-linecap:round;stroke-linejoin:round;stroke-miterlimit:10;}
	.st6{fill:#F9AE41;stroke:#391410;stroke-width:5;stroke-linecap:round;stroke-linejoin:round;stroke-miterlimit:10;}
	.st7{fill:#EA6D36;stroke:#391410;stroke-width:5;stroke-linecap:round;stroke-linejoin:round;stroke-miterlimit:10;}
	.st8{fill:#ED1C24;stroke:#391410;stroke-width:5;stroke-linecap:round;stroke-linejoin:round;stroke-miterlimit:10;}
	.st9{clip-path:url(#SVGID_2_);}
	.st10{fill:none;stroke:#391410;stroke-width:5;stroke-linecap:round;stroke-linejoin:round;stroke-miterlimit:10;}
	.st11{fill:#FFFFFF;stroke:#391410;stroke-width:5;stroke-linecap:round;stroke-linejoin:round;stroke-miterlimit:10;}
	.st12{fill:#F7C331;stroke:#391410;stroke-width:5;stroke-linecap:round;stroke-linejoin:round;stroke-miterlimit:10;}
</style>
<g>
	<g>
		<path class="st11" d="M80.1,143l23.7-40.9l-12.1-7L67.9,136c-4.3-2.2-9.6-0.7-12.1,3.6c-2.5,4.4-1,10,3.4,12.6
			c2.2,1.3,4.7,1.5,7,0.9c0.6,2.3,2.1,4.3,4.3,5.6c4.4,2.5,10,1,12.6-3.4C85.4,151,84.1,145.6,80.1,143z"/>
		<path class="st7" d="M140.1,93.7c10.3-17.7,5.3-39.8-11.1-49.3s-38-2.8-48.2,14.9c-4.5,7.8-6.1,16.4-5,24.4
			c-0.2,0.4-0.5,0.7-0.7,1.1c-7.3,12.6-3,28.8,9.6,36.1c12.6,7.3,28.8,3,36.1-9.6c0.2-0.4,0.4-0.7,0.6-1.1
			C128.9,107.2,135.6,101.5,140.1,93.7z"/>
		<path class="st7" d="M131.8,56.3c0,0,12.3,7.9,4.8,28.1"/>
	</g>
</g>
</svg>
