<?xml version="1.0" encoding="utf-8"?>
<!-- Generator: Adobe Illustrator 22.1.0, SVG Export Plug-In . SVG Version: 6.00 Build 0)  -->
<svg version="1.1" id="Layer_1" xmlns="http://www.w3.org/2000/svg" xmlns:xlink="http://www.w3.org/1999/xlink" x="0px" y="0px"
	 viewBox="0 0 200 200" style="enable-background:new 0 0 200 200;" xml:space="preserve">
<style type="text/css">
	.st0{fill:#FCBF75;stroke:#391410;stroke-width:6;stroke-linecap:round;stroke-linejoin:round;stroke-miterlimit:10;}
	.st1{fill:#FFBE57;stroke:#391410;stroke-width:5;stroke-linecap:round;stroke-linejoin:round;stroke-miterlimit:10;}
	.st2{fill:#CC4825;stroke:#391410;stroke-width:5;stroke-linecap:round;stroke-linejoin:round;stroke-miterlimit:10;}
	.st3{fill:#FCEE21;stroke:#391410;stroke-width:5;stroke-linecap:round;stroke-linejoin:round;stroke-miterlimit:10;}
	.st4{fill:#8C6239;stroke:#391410;stroke-width:5;stroke-linecap:round;stroke-linejoin:round;stroke-miterlimit:10;}
	.st5{fill:#48B748;stroke:#391410;stroke-width:5;stroke-linecap:round;stroke-linejoin:round;stroke-miterlimit:10;}
	.st6{fill:#F9AE41;stroke:#391410;stroke-width:5;stroke-linecap:round;stroke-linejoin:round;stroke-miterlimit:10;}
	.st7{fill:#EA6D36;stroke:#391410;stroke-width:5;stroke-linecap:round;stroke-linejoin:round;stroke-miterlimit:10;}
	.st8{fill:#ED1C24;stroke:#391410;stroke-width:5;stroke-linecap:round;stroke-linejoin:round;stroke-miterlimit:10;}
	.st9{clip-path:url(#SVGID_2_);}
	.st10{fill:none;stroke:#391410;stroke-width:5;stroke-linecap:round;stroke-linejoin:round;stroke-miterlimit:10;}
	.st11{fill:#FFFFFF;stroke:#391410;stroke-width:5;stroke-linecap:round;stroke-linejoin:round;stroke-miterlimit:10;}
	.st12{fill:#F7C331;stroke:#391410;stroke-width:5;stroke-linecap:round;stroke-linejoin:round;stroke-miterlimit:10;}
</style>
<g>
	<g>
		<path class="st12" d="M143,76.2l-20.3,39.2l-5.4,10.5l-8.5,16.4L100,159l-19.5-37.6l-3.1-6.1l-7.8-15L57,76.2
			c8.6-11.5,24.8-25.9,43.2-25.9S134.4,64.7,143,76.2z"/>
		<path class="st7" d="M147,68.5l-4,7.7c-8.6-11.5-24.5-21.8-42.9-21.8S65.6,64.7,57,76.2l-4-7.7c0.1-0.2,0.2-0.4,0.3-0.6
			C60.2,53.1,78.6,41,100.1,41s39.7,12.1,46.6,26.9C146.9,68.1,146.9,68.3,147,68.5z"/>
		<circle class="st8" cx="120.2" cy="80.7" r="10.8"/>
		<path class="st8" d="M94,108c0,7.4-6,13.4-13.4,13.4h-0.1l-3.1-6.1l-7.8-15c2.4-3.5,6.4-5.8,11-5.8C88,94.6,94,100.6,94,108z"/>
		<path class="st5" d="M117.3,125.8l-8.5,16.4c-3.2-1.4-5.5-4.7-5.5-8.5c0-5.1,4.2-9.3,9.3-9.3C114.2,124.5,115.9,125,117.3,125.8z"
			/>
		<circle class="st3" cx="83.1" cy="76.6" r="8.8"/>
		<circle class="st3" cx="110.4" cy="108" r="6.2"/>
	</g>
</g>
</svg>
