<?xml version="1.0" encoding="utf-8"?>
<!-- Generator: Adobe Illustrator 22.1.0, SVG Export Plug-In . SVG Version: 6.00 Build 0)  -->
<svg version="1.1" id="Layer_1" xmlns="http://www.w3.org/2000/svg" xmlns:xlink="http://www.w3.org/1999/xlink" x="0px" y="0px"
	 viewBox="0 0 200 200" style="enable-background:new 0 0 200 200;" xml:space="preserve">
<style type="text/css">
	.st0{fill:#FCBF75;stroke:#391410;stroke-width:6;stroke-linecap:round;stroke-linejoin:round;stroke-miterlimit:10;}
	.st1{fill:#FFBE57;stroke:#391410;stroke-width:5;stroke-linecap:round;stroke-linejoin:round;stroke-miterlimit:10;}
	.st2{fill:#CC4825;stroke:#391410;stroke-width:5;stroke-linecap:round;stroke-linejoin:round;stroke-miterlimit:10;}
	.st3{fill:#FCEE21;stroke:#391410;stroke-width:5;stroke-linecap:round;stroke-linejoin:round;stroke-miterlimit:10;}
	.st4{fill:#8C6239;stroke:#391410;stroke-width:5;stroke-linecap:round;stroke-linejoin:round;stroke-miterlimit:10;}
	.st5{fill:#48B748;stroke:#391410;stroke-width:5;stroke-linecap:round;stroke-linejoin:round;stroke-miterlimit:10;}
	.st6{fill:#F9AE41;stroke:#391410;stroke-width:5;stroke-linecap:round;stroke-linejoin:round;stroke-miterlimit:10;}
	.st7{fill:#EA6D36;stroke:#391410;stroke-width:5;stroke-linecap:round;stroke-linejoin:round;stroke-miterlimit:10;}
	.st8{fill:#ED1C24;stroke:#391410;stroke-width:5;stroke-linecap:round;stroke-linejoin:round;stroke-miterlimit:10;}
	.st9{clip-path:url(#SVGID_2_);}
	.st10{fill:none;stroke:#391410;stroke-width:5;stroke-linecap:round;stroke-linejoin:round;stroke-miterlimit:10;}
	.st11{fill:#FFFFFF;stroke:#391410;stroke-width:5;stroke-linecap:round;stroke-linejoin:round;stroke-miterlimit:10;}
	.st12{fill:#F7C331;stroke:#391410;stroke-width:5;stroke-linecap:round;stroke-linejoin:round;stroke-miterlimit:10;}
</style>
<g>
	<g>
		<polyline class="st10" points="106,63.2 106,41.3 122.6,31.3 		"/>
		<path class="st11" d="M70.1,60.4l4.2-5.2c0.7-0.8,1.8-1.4,3.1-1.4h45.9c1.3,0,2.6,0.6,3.2,1.6l3.5,5.2c1.4,2-0.4,4.5-3.2,4.5H73.2
			C70.3,65.1,68.5,62.4,70.1,60.4z"/>
		<path class="st11" d="M68.9,160.9l4.3,6.2c0.7,1,1.9,1.6,3.2,1.6h47.8c1.4,0,2.7-0.7,3.4-1.9l3.6-6.2c1.4-2.4-0.4-5.4-3.4-5.4
			H72.1C69.1,155.3,67.2,158.5,68.9,160.9z"/>
		<path class="st8" d="M127.6,162H72.4c-3,0-5.4-2.4-5.4-5.4V66.4c0-3,2.4-5.4,5.4-5.4h55.3c3,0,5.4,2.4,5.4,5.4v90.3
			C133,159.6,130.6,162,127.6,162z"/>
		<circle class="st11" cx="100" cy="106.2" r="20.6"/>
		<path class="st11" d="M100,118.5c0,0,12.8-0.8,14.3-13.2"/>
	</g>
</g>
</svg>
